<svg xmlns="http://www.w3.org/2000/svg" viewBox="0 0 1045.2 285.1">
  <title>Sveza_textbased_logo</title>
  <g id="Layer_2" data-name="Layer 2">
    <g id="Layer_1-2" data-name="Layer 1">
      <g>
        <path d="M0,226.5l23.6-14.3q24.9,45.9,57.5,45.9a56.1,56.1,0,0,0,26.4-6.5,46.7,46.7,0,0,0,18.8-17.4,45.8,45.8,0,0,0,6.3-23.3q0-13.8-9.3-27.3Q110.1,165,75.5,145.7q-34.8-26.1-43.1-38c-9.9-13-14.8-27.2-14.8-42.5a65,65,0,0,1,8.6-33A63,63,0,0,1,50.7,8.7,70,70,0,0,1,85,0a72.8,72.8,0,0,1,36.6,9.8c11.3,6.6,23.4,18.5,36.1,35.9L135.1,62.8C124.7,49,115.8,39.9,108.5,35.5a46.7,46.7,0,0,0-24.2-6.7c-11.1,0-20.2,3.5-27.4,10.3a33.2,33.2,0,0,0-10.6,25A43.8,43.8,0,0,0,50,81.7c2.5,5.7,7.1,11.8,13.9,18.3q5.4,5.6,35.9,27.9c24,17.8,40.5,32.4,49.4,44.1s13.4,24.3,13.4,38.2c0,20.2-7.7,37.8-23,52.6s-33.8,22.3-55.7,22.3a82.4,82.4,0,0,1-46.1-13.5Q17.3,258.1,0,226.5Z"/>
        <path d="M191.6,77.9h28.1l68.8,149.5L356.7,77.9h28.2l-94,205.5h-4.7Z"/>
        <path d="M598.1,210l22.1,11.8c-7.1,14.3-15.5,25.9-25.1,34.6a100.9,100.9,0,0,1-32.4,20c-12,4.6-25.5,6.8-40.6,6.8q-50.2,0-78.5-32.8c-18.9-22-28.3-46.7-28.3-74.3q0-39.2,24-69.7,30.3-39,81.5-39t83.7,39.9c14.8,18.8,22.3,42.1,22.5,70.1H442.5c.4,24,8.1,43.6,22.8,58.9s32.9,23,54.5,23a85.8,85.8,0,0,0,30.5-5.6,81.3,81.3,0,0,0,25.2-14.5C582.5,233.2,590,223.5,598.1,210Zm0-55.3c-3.5-14.1-8.6-25.4-15.3-33.8s-15.7-15.2-26.8-20.4a81.8,81.8,0,0,0-35.1-7.8q-30.1,0-51.9,19.5c-10.4,9.5-18.4,23.7-23.7,42.5Z"/>
        <path d="M659.6,75.3H810.3L693.8,259.6H806.6V283H648.5L764.6,98.5h-105Z"/>
        <path d="M937.5,67.4c31.6,0,57.9,11.5,78.7,34.3,19.2,20.9,28.9,45.7,28.9,74.4q.3,106.4,0,108.1h-28V237.5q-21.9,40.8-79.6,45.7-47.1,0-77-32.1c-20-21.4-29.9-46.4-29.9-75s9.4-53.2,28.3-74.2Q890.1,67.4,937.5,67.4Zm0,25.9q-32.7,0-56.3,24.3c-15.8,16.3-23.6,35.9-23.6,58.9q0,22.2,12,42.9c8.1,13.7,21.7,25.3,41,34.8q72.3,16.1,102.8-65.8a140.1,140.1,0,0,0-5.6-50.2,83.6,83.6,0,0,0-14.4-20.6Q970.3,93.3,937.5,93.3Z"/>
      </g>
    </g>
  </g>
</svg>
